<?xml version="1.0" encoding="iso-8859-1"?>
<!-- Uploaded to: SVG Repo, www.svgrepo.com, Generator: SVG Repo Mixer Tools -->
<!DOCTYPE svg PUBLIC "-//W3C//DTD SVG 1.1//EN" "http://www.w3.org/Graphics/SVG/1.1/DTD/svg11.dtd">
<svg fill="#000000" height="800px" width="800px" version="1.1" id="Capa_1" xmlns="http://www.w3.org/2000/svg" xmlns:xlink="http://www.w3.org/1999/xlink" 
	 viewBox="0 0 512.051 512.051" xml:space="preserve">
<g>
	<path d="M448.996,355.566c-10.726-17.942-25.761-30.422-43.48-36.091l-50.052-16.017c-1.647-0.528-3.338-0.487-4.869,0.004
		l-7.908-11.863c-2.369-3.554-7.111-4.619-10.772-2.423l-3.885,2.331v-11.472c0-1.212-0.278-2.357-0.76-3.387
		c24.924-22.028,40.84-55.368,40.84-92.618v-27.844c20.042-56.016,19.818-120.48,6.164-137.165c-0.03-0.037-0.058-0.076-0.089-0.114
		c-0.002-0.002-0.004-0.005-0.006-0.007c-0.022-0.027-0.048-0.05-0.07-0.076c-0.145-0.17-0.295-0.335-0.453-0.491
		c-0.097-0.096-0.199-0.182-0.3-0.272c-0.09-0.08-0.177-0.164-0.271-0.24c-0.134-0.109-0.273-0.208-0.412-0.308
		c-0.069-0.049-0.135-0.101-0.205-0.147c-0.15-0.1-0.305-0.19-0.461-0.28c-0.068-0.039-0.134-0.081-0.203-0.118
		c-0.15-0.08-0.304-0.151-0.458-0.221c-0.084-0.038-0.166-0.079-0.251-0.114c-0.139-0.057-0.281-0.106-0.422-0.156
		c-0.107-0.037-0.212-0.077-0.32-0.11c-0.125-0.038-0.25-0.067-0.376-0.099c-0.128-0.032-0.256-0.066-0.387-0.092
		c-0.114-0.023-0.229-0.037-0.344-0.055c-0.142-0.022-0.282-0.045-0.426-0.06c-0.121-0.012-0.242-0.015-0.363-0.021
		c-0.136-0.007-0.271-0.017-0.407-0.018c-0.156,0-0.311,0.01-0.467,0.019c-0.102,0.006-0.203,0.006-0.305,0.016
		c-0.238,0.022-0.475,0.058-0.711,0.101c-0.021,0.004-0.042,0.005-0.063,0.009c-0.011,0.002-0.023,0.003-0.035,0.006
		c-0.004,0.001-0.007,0.001-0.011,0.002c-18.672,3.623-40.905-1.609-64.442-7.15c-37.071-8.725-75.371-17.723-105.181,7.192
		c-1.595-0.118-3.197-0.197-4.81-0.197c-35.292,0-64.003,28.712-64.003,64.003c0,37.673,13.542,81.183,16.176,89.289v14.717
		c0,37.162,15.841,70.431,40.663,92.46c-0.53,1.07-0.836,2.27-0.836,3.545v11.472l-3.885-2.331c-3.66-2.196-8.403-1.13-10.772,2.423
		l-7.908,11.862c-1.531-0.49-3.222-0.532-4.87-0.003l-50.052,16.017c-17.719,5.669-32.754,18.148-43.48,36.091
		c-9.698,16.223-15.04,35.77-15.04,55.038v69.443c0,17.646,14.356,32.001,32.001,32.001h95.98c0.009,0,0.017,0.002,0.025,0.002
		c0.015,0,0.03-0.002,0.045-0.002h159.917c0.015,0,0.03,0.002,0.045,0.002c0.009,0,0.017-0.002,0.025-0.002h95.98
		c17.646,0,32.001-14.355,32.001-32.001v-69.443C464.036,391.336,458.694,371.789,448.996,355.566z M181.625,496.049
		l-59.871-164.645l30.437-9.74c0.25,1.204,0.775,2.361,1.579,3.368l10.444,13.073c-2.672,3.107-4.193,7.101-4.193,11.292v53.102
		c0,5.68,2.788,11.002,7.456,14.237c2.938,2.036,6.389,3.084,9.868,3.084c2.049,0,4.109-0.363,6.08-1.104l47.596-17.848
		c4.349,4.371,10.366,7.08,17.004,7.08h16c6.638,0,12.655-2.71,17.004-7.08l47.595,17.848c1.972,0.739,4.031,1.104,6.082,1.104
		c3.479,0,6.93-1.048,9.868-3.084c4.668-3.235,7.456-8.558,7.456-14.237v-53.102c0-3.327-0.963-6.528-2.693-9.262l9.56-15.991
		c0.467-0.781,0.771-1.623,0.949-2.484l30.45,9.744l-59.871,164.645H181.625z M95.905,342.763c3.474-2.532,7.068-4.612,10.695-6.211
		l57.999,159.497H96.017V344.04C96.017,343.604,95.972,343.18,95.905,342.763z M224.024,367.947v0.095h-16.001c-4.418,0-8,3.582-8,8
		s3.582,8,8,8h16.001v2.363l-46.218,17.331c-0.43,0.161-0.839,0.11-1.216-0.151s-0.569-0.627-0.569-1.086v-53.102
		c0-0.459,0.191-0.825,0.569-1.087c0.234-0.162,0.48-0.243,0.736-0.243c0.157,0,0.318,0.031,0.481,0.092l46.217,17.332V367.947z
		 M248.025,359.946h16c4.412,0,8.001,3.589,8.001,8.001v16.001c0,4.412-3.589,8.001-8.001,8.001h-16
		c-4.412,0-8.001-3.589-8.001-8.001v-16.001C240.024,363.535,243.613,359.946,248.025,359.946z M334.243,348.159
		c0.43-0.16,0.84-0.111,1.218,0.151c0.377,0.262,0.569,0.628,0.569,1.087v53.102c0,0.459-0.191,0.824-0.569,1.086
		c-0.378,0.262-0.787,0.312-1.217,0.151l-46.217-17.331v-2.363h16.001c4.418,0,8-3.582,8-8s-3.582-8-8-8h-16.001v-0.095v-2.456
		L334.243,348.159z M405.451,336.552c3.627,1.599,7.221,3.679,10.695,6.211c-0.067,0.417-0.111,0.842-0.111,1.277v152.009h-68.583
		L405.451,336.552z M333.605,306.822l8.966,13.449l-7.072,11.829c-2.309-0.106-4.647,0.243-6.873,1.078l-47.595,17.849
		c-2.921-2.936-6.597-5.118-10.706-6.237L333.605,306.822z M160.195,184.032v-8.001c0-28.297,20.239-50.313,20.431-50.518
		c3.029-3.217,2.877-8.279-0.339-11.309c-3.215-3.03-8.279-2.878-11.309,0.338c-0.609,0.647-9.474,10.216-16.43,25.318
		c-4.144-16.89-8.529-39.554-8.529-59.834c0-26.469,21.534-48.003,48.003-48.003c6.406,0,12.625,1.239,18.481,3.685
		c4.077,1.699,8.762-0.225,10.464-4.301c1.521-3.644,0.14-7.766-3.08-9.818c22.444-10.631,50.761-3.977,80.46,3.013
		c18.353,4.32,37.179,8.752,54.837,8.752c3.562,0,7.071-0.206,10.525-0.604c2.284,6.238,4.602,19.285,4.146,38.936
		c-0.496,21.373-4.119,44.063-10.338,65.321l-14.912-21.534c-2.08-3.003-5.944-4.211-9.371-2.941
		c-0.192,0.07-19.47,7.059-47.831,6.74c-37.77-0.47-72.922-13.109-104.483-37.568c-3.493-2.707-8.518-2.069-11.224,1.423
		c-2.707,3.492-2.07,8.518,1.423,11.224c43.091,33.396,86.235,40.689,114.839,40.928c21.713,0.222,38.408-3.5,46.842-5.858
		l19.306,27.88v26.732c0,57.349-43.046,104.006-95.957,104.006S160.195,241.381,160.195,184.032z M200.022,287.833
		c16.512,10.298,35.688,16.205,56.129,16.205c20.336,0,39.423-5.844,55.877-16.045v13.116l-56.003,33.601l-56.003-33.602V287.833z
		 M178.446,306.822l63.28,37.968c-4.109,1.119-7.785,3.301-10.706,6.237l-47.596-17.849c-1.102-0.414-2.233-0.703-3.373-0.883
		l-10.132-12.682L178.446,306.822z M64.015,480.048v-69.443c0-20.765,6.476-38.431,16.002-51.669v137.114h0
		C71.193,496.049,64.015,488.871,64.015,480.048z M448.036,480.048c0,8.823-7.178,16.001-16.001,16.001V358.935
		c9.526,13.238,16.001,30.905,16.001,51.669V480.048z"/>
	<path d="M256.026,416.045c-8.823,0-16,7.178-16,16c0,8.823,7.178,16.001,16,16.001c8.822,0,16-7.178,16-16.001
		C272.026,423.222,264.848,416.045,256.026,416.045z"/>
	<path d="M256.026,456.047c-8.823,0-16,7.178-16,16c0,8.823,7.178,16.001,16,16.001c8.822,0,16-7.178,16-16.001
		C272.026,463.224,264.848,456.047,256.026,456.047z"/>
</g>
</svg>